<?xml version="1.0" standalone="no"?><!DOCTYPE svg PUBLIC "-//W3C//DTD SVG 1.1//EN" "http://www.w3.org/Graphics/SVG/1.1/DTD/svg11.dtd"><svg t="1584150491828" class="icon" viewBox="0 0 1024 1024" version="1.1" xmlns="http://www.w3.org/2000/svg" p-id="2144" xmlns:xlink="http://www.w3.org/1999/xlink" width="200" height="200"><defs><style type="text/css"></style></defs><path d="M889.3 174.9h-755c-20.6 0-37.5-16.9-37.5-37.5s16.9-37.5 37.5-37.5h755c20.6 0 37.5 16.9 37.5 37.5s-16.9 37.5-37.5 37.5zM891.5 549.5h-755c-20.6 0-37.5-16.9-37.5-37.5s16.9-37.5 37.5-37.5h755c20.6 0 37.5 16.9 37.5 37.5s-16.8 37.5-37.5 37.5zM891.6 926.5h-755c-20.6 0-37.5-16.9-37.5-37.5s16.9-37.5 37.5-37.5h755c20.6 0 37.5 16.9 37.5 37.5 0 20.7-16.9 37.5-37.5 37.5z" p-id="2145"></path></svg>