<?xml version="1.0" standalone="no"?><!DOCTYPE svg PUBLIC "-//W3C//DTD SVG 1.1//EN" "http://www.w3.org/Graphics/SVG/1.1/DTD/svg11.dtd"><svg t="1584262513660" class="icon" viewBox="0 0 1102 1024" version="1.1" xmlns="http://www.w3.org/2000/svg" p-id="3658" xmlns:xlink="http://www.w3.org/1999/xlink" width="215.234375" height="200"><defs><style type="text/css"></style></defs><path d="M512.037865 0a518.070117 518.070117 0 0 0-511.999268 524.067823A527.212961 527.212961 0 0 0 204.838304 943.541509a35.693663 35.693663 0 0 0 21.942826 7.314275 36.571376 36.571376 0 0 0 35.986234-36.571376 37.010233 37.010233 0 0 0-17.700546-31.743954 446.170791 446.170791 0 0 1-97.206718-105.764421l43.885652-26.111963a33.20681 33.20681 0 0 0 11.70284-44.763364 31.597669 31.597669 0 0 0-43.885652-11.995412l-43.885651 26.111963A452.973067 452.973067 0 0 1 73.18135 556.762633h51.199926a32.914239 32.914239 0 0 0 0-65.828477H73.18135a457.946774 457.946774 0 0 1 42.78851-163.766623l43.885651 25.965677a31.597669 31.597669 0 0 0 43.885652-11.995412 33.20681 33.20681 0 0 0-11.70284-44.763364l-43.885652-25.892535a448.218788 448.218788 0 0 1 116.589548-118.930116l25.307392 44.909651a31.597669 31.597669 0 0 0 43.885652 11.995411 33.20681 33.20681 0 0 0 11.70284-44.763365l-25.380535-45.055935a428.397102 428.397102 0 0 1 160.036343-43.885652v52.004497a32.036526 32.036526 0 1 0 63.999908 0v-51.858211a430.591385 430.591385 0 0 1 159.524344 43.885651l-25.526821 45.275364a33.20681 33.20681 0 0 0 11.702841 44.763365 31.597669 31.597669 0 0 0 43.885651-11.995412l25.526821-45.275364a446.170791 446.170791 0 0 1 117.028404 119.661544l-43.885651 25.892534a33.20681 33.20681 0 0 0-11.702841 44.763365 31.597669 31.597669 0 0 0 43.885652 11.995411l43.885651-25.965677A455.313635 455.313635 0 0 1 950.894381 491.29987h-51.199926a32.914239 32.914239 0 0 0 0 65.828477h51.199926a456.483919 456.483919 0 0 1-42.569082 163.254624l-43.885651-26.111963a31.597669 31.597669 0 0 0-43.885652 11.995412 33.20681 33.20681 0 0 0 11.702841 44.763364l43.885651 26.111963a446.975361 446.975361 0 0 1-100.205571 107.592989 37.010233 37.010233 0 0 0-14.189694 29.257101 36.571376 36.571376 0 0 0 35.986234 36.571376 35.547378 35.547378 0 0 0 25.673107-11.044555A527.286104 527.286104 0 0 0 1024.037134 524.067823 518.070117 518.070117 0 0 0 512.037865 0z" p-id="3659"></path><path d="M669.660497 357.375489L544.001248 457.507918a69.924472 69.924472 0 0 0-31.89024-7.314275 73.142753 73.142753 0 0 0-72.045611 73.435323A73.142753 73.142753 0 0 0 512.037865 597.356861a73.142753 73.142753 0 0 0 71.972469-73.727895 70.655899 70.655899 0 0 0-1.316569-13.897123l126.390676-101.156427a33.279952 33.279952 0 0 0 5.485707-45.933648 31.524526 31.524526 0 0 0-44.909651-5.266279z" p-id="3660"></path></svg>