<?xml version="1.0" standalone="no"?><!DOCTYPE svg PUBLIC "-//W3C//DTD SVG 1.1//EN" "http://www.w3.org/Graphics/SVG/1.1/DTD/svg11.dtd"><svg t="1584871403242" class="icon" viewBox="0 0 1024 1024" version="1.1" xmlns="http://www.w3.org/2000/svg" p-id="6598" xmlns:xlink="http://www.w3.org/1999/xlink" width="200" height="200"><defs><style type="text/css"></style></defs><path d="M728.241484 501.94397c0 20.784372-16.82827 34.028001-37.585013 34.028001l-376.719944 0c-20.698414 0-37.525662-13.243629-37.525662-34.028001L276.410865 220.255403c0-20.75572 16.82827-37.498032 37.525662-37.498032l376.719944 0c20.75572 0 37.612643 16.741289 37.612643 37.498032l0 281.687544L728.241484 501.942947zM728.241484 501.94397" p-id="6599"></path><path d="M857.073688 406.967852c8.512884 0 15.4509 6.907317 15.4509 15.422248l0 96.581686c0 8.54256-6.936993 16.999163-15.4509 16.999163l-79.609129 0c-8.487302 0-15.424294-8.457626-15.424294-16.999163l0-96.581686c0-8.514931 6.936993-15.422248 15.424294-15.422248L857.073688 406.967852 857.073688 406.967852zM857.073688 406.967852" p-id="6600"></path><path d="M225.066477 406.967852c8.513908 0 15.424294 6.907317 15.424294 15.422248l0 96.581686c0 8.54256-6.909363 16.999163-15.424294 16.999163L145.487024 535.970948c-8.543583 0-15.451924-8.457626-15.451924-16.999163l0-96.581686c0-8.514931 6.90834-15.422248 15.451924-15.422248L225.066477 406.967852 225.066477 406.967852zM225.066477 406.967852" p-id="6601"></path><path d="M882.187669 744.471632c0 18.34788-14.966876 33.311687-33.225729 33.311687L174.153924 777.783319c-18.319228 0-33.254382-14.963807-33.254382-33.311687l0-68.515467c0-18.23327 14.935154-33.197076 33.254382-33.197076l674.806993 0c18.258852 0 33.225729 14.963807 33.225729 33.197076L882.186645 744.471632 882.187669 744.471632zM882.187669 744.471632" p-id="6602"></path><path d="M211.451388 770.043031l76.68452 0 0 66.451458-76.68452 0L211.451388 770.043031 211.451388 770.043031zM211.451388 770.043031" p-id="6603"></path><path d="M743.005746 770.043031l75.824943 0 0 66.451458L743.005746 836.494489 743.005746 770.043031 743.005746 770.043031zM743.005746 770.043031" p-id="6604"></path><path d="M893.281331 620.569718c0 18.290575-14.963807 33.254382-33.254382 33.254382l-695.848215 0c-18.318204 0-33.254382-14.963807-33.254382-33.254382l0-16.655332c0-18.261922 14.936177-33.225729 33.254382-33.225729l695.848215 0c18.290575 0 33.254382 14.963807 33.254382 33.225729L893.281331 620.569718 893.281331 620.569718zM893.281331 620.569718" p-id="6605"></path></svg>