<?xml version="1.0" standalone="no"?><!DOCTYPE svg PUBLIC "-//W3C//DTD SVG 1.1//EN" "http://www.w3.org/Graphics/SVG/1.1/DTD/svg11.dtd"><svg t="1584871268104" class="icon" viewBox="0 0 1024 1024" version="1.1" xmlns="http://www.w3.org/2000/svg" p-id="3390" xmlns:xlink="http://www.w3.org/1999/xlink" width="200" height="200"><defs><style type="text/css"></style></defs><path d="M562.371736 213.870995C516.995269 259.196297 452.315154 376.915395 450.175421 465.627856l50.949392 1.194199c1.641383-67.963904 54.529941-174.23937 97.269348-216.928635 48.559972-48.460712 127.619586-48.460712 176.180581 0l36.021402-36.022425c-68.462255-68.361971-179.712011-68.361971-248.224408 0z" p-id="3391"></path><path d="M880.401999 144.165424c-50.998511-50.89925-118.713752-78.960353-190.80772-78.960353-72.043826 0-139.760091 28.061103-190.70846 78.960353-77.400834 77.447906-180.705642 274.744411-173.22118 410.93828l-117.393687 117.352755c-37.017078-16.717753-84.432994-8.955976-114.086361 20.698414-19.205411 19.205411-29.752628 44.728714-29.752628 71.895447 0 27.215852 10.54824 52.739155 29.752628 71.845305 17.314341 17.364483 39.803541 27.713178 64.034409 29.554106 1.840928 23.285333 11.593036 46.023196 29.355584 63.784722 19.205411 19.304671 44.778856 29.903054 71.944566 29.903054 27.16571 0 52.739155-10.647501 71.894424-29.852912 30.748305-30.748305 37.614689-76.521814 20.648272-113.988124l117.352755-117.352755c4.606925 0.248663 9.292644 0.38067 14.048971 0.38067 136.177496 0 326.039681-102.842273 396.939451-173.593663 105.129362-105.180528 105.129362-276.334629-0.001024-381.565299z m-624.616893 667.553798l25.176402 25.176403c11.791557 11.890818 11.841699 31.146371-0.050142 42.98807-11.492752 11.592013-31.395034 11.393491-42.887786 0-11.791557-11.841699-11.791557-31.147394 0.049119-42.98807l-50.550303-50.351782c-11.343349 11.443633-31.395034 11.492752-42.937928-0.050142-5.672186-5.721305-8.856715-13.33368-8.856715-21.443381 0-8.110725 3.184529-15.722076 8.906857-21.444405 11.443633-11.393491 31.494295-11.443633 42.937928-0.050142l25.175379 25.275663 155.183362-155.085124 28.907376 13.981433 13.931291 28.956495-154.98484 155.034982z m574.165851-336.48866C767.26015 537.822109 589.140403 631.260198 477.639936 627.926266l-22.025642-42.620703-5.239328-10.914584-10.293437-4.975315-43.441395-22.4892c-3.482311-108.165512 85.875856-285.49015 152.695704-352.260879 74.880431-74.92955 205.734688-74.92955 280.615119 0 77.316923 77.368088 77.316923 203.247031 0 280.564977z" p-id="3392"></path></svg>