<?xml version="1.0" standalone="no"?><!DOCTYPE svg PUBLIC "-//W3C//DTD SVG 1.1//EN" "http://www.w3.org/Graphics/SVG/1.1/DTD/svg11.dtd"><svg t="1584871345504" class="icon" viewBox="0 0 1075 1024" version="1.1" xmlns="http://www.w3.org/2000/svg" p-id="5807" xmlns:xlink="http://www.w3.org/1999/xlink" width="209.9609375" height="200"><defs><style type="text/css"></style></defs><path d="M1073.363426 842.986596a1038.338274 1038.338274 0 0 1-290.413581-291.484033C660.597201 385.368439 747.089709 170.314666 785.304839 115.935714a77.821848 77.821848 0 0 0 10.704518-70.863912C763.253531-47.415236 594.764414 22.806404 572.39197 74.937408 550.126572 22.806404 381.530409-47.415236 348.560493 45.071802a78.142984 78.142984 0 0 0 10.704518 70.863912C398.122413 170.314666 484.293785 385.368439 361.72705 551.502563A1078.480218 1078.480218 0 0 1 51.29602 862.897s13.273603 32.113555 29.223335 35.967181c31.471284 8.135434 58.981896-21.409037 58.981896-21.409036 38.750356-23.656985 68.723007-20.23154 71.399137 40.677169-3.318401 55.34236 80.926158 49.026694 63.584838 21.409037s-1.926813-76.00208 46.45761-34.89673c45.494203 39.499672 172.44979 183.047263 176.731597 86.599553 4.281807-91.095451 69.151188-76.751396 155.001425-10.704518 31.150148 38.536266 59.088941 43.78148 107.045182 34.575594a131.344439 131.344439 0 0 0 61.550981-32.113555c19.268133-16.913139 47.528061-19.696314 78.357074 5.673395 41.747621 33.184007 78.142984-36.395362 62.835522-68.508917-14.237009-34.254459 49.454874-43.99557 85.636146-26.654251s25.797889-51.167597 25.262663-50.525326z" p-id="5808"></path><path d="M954.543273 974.866261a1979.265432 1979.265432 0 0 1-234.42895-321.135549c42.818073 102.549285 105.760641 214.090366 179.086591 335.051423 22.051308 17.983591 43.139209 5.56635 55.342359-13.915874zM756.61673 1015.11525a4369.691411 4369.691411 0 0 1-157.677554-421.865066C611.356417 706.503988 628.697737 824.253689 652.675858 980.00443c30.186742 37.78695 58.125534 43.460344 103.940872 35.11082zM543.703861 657.263203c-10.704518 90.45318-24.727437 187.650206-42.818073 307.647856a121.710373 121.710373 0 0 0-3.3184 26.44016c-1.177497 51.381688-40.463079 34.89673-81.996611 0C469.73564 862.361774 510.6269 755.316591 543.703861 657.263203zM497.888523 533.733062l-7.064982 17.769501A2146.255917 2146.255917 0 0 1 313.770809 899.185317c-42.818073-30.400832-55.021224 15.628597-39.285583 40.463079 17.34132 27.403567-66.903239 33.719233-63.584838-21.409037 0-3.10431 0-6.101575-0.535226-8.88475a1734.131963 1734.131963 0 0 0 277.032933-357.852046zM339.354607 679.528601A1320.616421 1320.616421 0 0 1 139.501251 877.77628c-6.208621 4.924078-12.417241 9.741112-18.732907 14.4511a54.593043 54.593043 0 0 1-40.248989 6.957937 16.163823 16.163823 0 0 1-3.532491-1.391588 1234.016868 1234.016868 0 0 0 262.367743-218.265128z" p-id="5809"></path><path d="M587.592386 142.697009a15.200416 15.200416 0 1 1-15.200416-15.200416 15.093371 15.093371 0 0 1 15.200416 15.200416zM587.592386 228.975427A15.200416 15.200416 0 1 1 572.39197 214.096146a15.200416 15.200416 0 0 1 15.200416 14.879281z" p-id="5810"></path></svg>