<?xml version="1.0" standalone="no"?><!DOCTYPE svg PUBLIC "-//W3C//DTD SVG 1.1//EN" "http://www.w3.org/Graphics/SVG/1.1/DTD/svg11.dtd"><svg t="1584871424356" class="icon" viewBox="0 0 1024 1024" version="1.1" xmlns="http://www.w3.org/2000/svg" p-id="7669" xmlns:xlink="http://www.w3.org/1999/xlink" width="200" height="200"><defs><style type="text/css"></style></defs><path d="M937.57 511.491c0-17.413-9.122-37.977-18.823-51.824C843.493 351.79 711.192 321.524 631.588 315.556c-21.936-25.126-123.224-103.981-123.224-103.981-53.566-41.46-53.276 0-53.276 0l0 129.603C310.926 417.96 310.926 458.672 278.545 479.734c-32.382 21.063-66.213-34.658-119.158-81.344-52.947-46.682-73.554-31.634-70.609 0 2.239 23.924 25.456 76.287 36.652 100.499 2.073 6.551 3.316 17.495-3.234 32.378-11.94 26.162-31.427 71.686-33.417 93.493-2.943 31.591 17.662 46.683 70.609 0 52.944-46.769 86.776-102.407 119.158-81.344 32.381 21.063 32.381 61.775 176.542 138.555l0 129.521c0 0-0.291 41.542 53.276 0 0 0 101.288-78.813 123.224-103.897 79.604-6.01 211.946-36.232 287.157-144.113 9.701-13.931 18.823-34.408 18.823-51.904l0-0.085 0.001 0L937.569 511.491zM791.004 556.848c-24.42 0-44.24-20.315-44.24-45.271 0-25.043 19.82-45.276 44.24-45.276 24.419 0 44.237 20.232 44.237 45.276C835.241 536.531 815.424 556.848 791.004 556.848" p-id="7670"></path></svg>